<svg xmlns="http://www.w3.org/2000/svg" width="280" height="130" viewBox="-140 -65 280 130"><g transform="translate(0 0) rotate(0) scale(1)" opacity="1"><path d="M-112.0 -56.6 C-90.5 -59.4 -37.3 -54.8 0.0 -54.8 C37.3 -54.9 90.3 -59.7 112.0 -56.9 C133.7 -54.1 127.4 -47.5 130.3 -38.0 C133.2 -28.5 129.1 -12.7 129.3 0.0 C129.5 12.7 134.5 28.5 131.6 38.0 C128.7 47.5 133.9 53.7 112.0 56.7 C90.1 59.8 37.3 56.4 0.0 56.3 C-37.3 56.2 -90.2 59.2 -112.0 56.2 C-133.8 53.1 -127.3 47.4 -130.6 38.0 C-133.8 28.6 -131.6 12.7 -131.4 0.0 C-131.1 -12.7 -132.3 -28.6 -129.1 -38.0 C-125.9 -47.4 -133.5 -53.8 -112.0 -56.6Z" fill="#2A2F38" stroke="#1F2329" stroke-width="7" stroke-linecap="round" stroke-linejoin="round"></path><text x="0" y="30" text-anchor="middle" font-family="Cairo" font-weight="900" font-size="78" fill="#8FC1BE" opacity="1">3:00</text></g></svg>
