<svg xmlns="http://www.w3.org/2000/svg" width="400" height="700" viewBox="-200 -680 400 700"><g transform="translate(0 0) scale(1 1)" opacity="1"><ellipse cx="0" cy="4" rx="99.2" ry="14" fill="rgba(31,35,41,0.12)"></ellipse><g transform="translate(0 -159.7807255607318)"><g><path d="M-26.0 0.0 C-26.7 13.6 -28.9 55.3 -30.3 81.9 C-31.7 108.5 -33.7 146.8 -34.4 159.8" fill="none" stroke="#1F2329" stroke-width="10" stroke-linecap="round" stroke-linejoin="round"></path><path d="M-5.6 158.3 C-6.8 161.0 -10.2 164.2 -14.3 165.6 C-18.4 167.1 -25.4 167.7 -30.2 167.0 C-35.1 166.4 -40.9 164.2 -43.4 161.9 C-45.9 159.6 -46.3 155.9 -45.2 153.2 C-44.1 150.5 -40.9 147.2 -36.7 145.7 C-32.6 144.2 -25.4 143.6 -20.4 144.3 C-15.4 144.9 -9.4 147.2 -7.0 149.6 C-4.5 151.9 -4.3 155.7 -5.6 158.3Z" fill="#2E7BC5" stroke="#1F2329" stroke-width="5.6000000000000005" stroke-linecap="round" stroke-linejoin="round"></path></g><g><path d="M26.0 0.0 C26.7 13.6 28.9 55.3 30.3 81.9 C31.7 108.5 33.7 146.8 34.4 159.8" fill="none" stroke="#1F2329" stroke-width="10" stroke-linecap="round" stroke-linejoin="round"></path><path d="M63.9 156.8 C63.5 159.5 60.6 163.0 56.8 164.6 C53.1 166.3 46.5 167.0 41.6 166.7 C36.6 166.5 30.3 165.3 27.0 163.3 C23.7 161.3 21.1 157.4 21.6 154.7 C22.1 152.0 26.2 148.7 30.1 147.1 C34.0 145.4 40.3 144.6 45.2 144.8 C50.0 145.1 56.0 146.6 59.2 148.6 C62.3 150.6 64.3 154.1 63.9 156.8Z" fill="#2E7BC5" stroke="#1F2329" stroke-width="5.6000000000000005" stroke-linecap="round" stroke-linejoin="round"></path></g><g transform="translate(0 0) rotate(0) scale(1.015 0.97)"><path d="M0.0 -212.0 C9.6 -209.7 45.3 -212.0 57.6 -198.0 C69.9 -184.0 69.9 -152.1 73.6 -127.7 C77.3 -103.3 82.1 -72.8 80.0 -51.5 C77.9 -30.2 74.1 -10.3 60.8 0.0 C47.5 10.3 20.3 10.0 0.0 10.0 C-20.3 10.0 -47.5 10.3 -60.8 0.0 C-74.1 -10.3 -77.9 -30.2 -80.0 -51.5 C-82.1 -72.8 -77.3 -103.3 -73.6 -127.7 C-69.9 -152.1 -69.9 -184.0 -57.6 -198.0 C-45.3 -212.0 -9.6 -209.7 0.0 -212.0Z" fill="#E63946" stroke="#1F2329" stroke-width="7" stroke-linecap="round" stroke-linejoin="round"></path><path d="M-41.6 -194 Q0 -160 41.6 -194" fill="none" stroke="#22304A" stroke-width="9.799999999999999" stroke-linecap="round" stroke-linejoin="round"></path><g><path d="M-60.0 -172.0 C-65.3 -168.3 -86.4 -153.5 -91.7 -149.8" stroke="#1F2329" stroke-width="32" stroke-linecap="round" stroke-linejoin="round" fill="none"></path><path d="M-60.0 -172.0 C-65.3 -168.3 -86.4 -153.5 -91.7 -149.8" stroke="#E63946" stroke-width="22.200000000000003" stroke-linecap="round" stroke-linejoin="round" fill="none"></path><path d="M-60.0 -172.0 C-66.2 -167.9 -85.5 -155.6 -97.2 -147.3 C-109.0 -139.1 -118.2 -115.2 -130.4 -122.7 C-142.7 -130.1 -163.8 -180.4 -170.4 -192.0" fill="none" stroke="#1F2329" stroke-width="10" stroke-linecap="round" stroke-linejoin="round"></path><g transform="translate(-170.4470758088533 -191.95445877656516) rotate(150)"><g><path d="M-9.625 17.5 L-14.4375 35.875" stroke="#1F2329" stroke-width="5.6000000000000005" stroke-linecap="round" stroke-linejoin="round"></path><path d="M0 17.5 L0 35.875" stroke="#1F2329" stroke-width="5.6000000000000005" stroke-linecap="round" stroke-linejoin="round"></path><path d="M9.625 17.5 L14.4375 35.875" stroke="#1F2329" stroke-width="5.6000000000000005" stroke-linecap="round" stroke-linejoin="round"></path><path d="M13.125 8.75 L27.125 15.75" stroke="#1F2329" stroke-width="5.6000000000000005" stroke-linecap="round" stroke-linejoin="round"></path><ellipse cx="0" cy="13.125" rx="15.75" ry="13.65" fill="#FFFFFF" stroke="#1F2329" stroke-width="5.6000000000000005" stroke-linecap="round" stroke-linejoin="round"></ellipse></g></g></g><g><path d="M60.0 -172.0 C65.3 -168.3 86.4 -153.5 91.7 -149.8" stroke="#1F2329" stroke-width="32" stroke-linecap="round" stroke-linejoin="round" fill="none"></path><path d="M60.0 -172.0 C65.3 -168.3 86.4 -153.5 91.7 -149.8" stroke="#E63946" stroke-width="22.200000000000003" stroke-linecap="round" stroke-linejoin="round" fill="none"></path><path d="M60.0 -172.0 C66.2 -167.9 85.5 -155.6 97.2 -147.3 C109.0 -139.1 118.2 -115.2 130.4 -122.7 C142.7 -130.1 163.8 -180.4 170.4 -192.0" fill="none" stroke="#1F2329" stroke-width="10" stroke-linecap="round" stroke-linejoin="round"></path><g transform="translate(170.4470758088533 -191.95445877656516) rotate(-150)"><g><path d="M-9.625 17.5 L-14.4375 35.875" stroke="#1F2329" stroke-width="5.6000000000000005" stroke-linecap="round" stroke-linejoin="round"></path><path d="M0 17.5 L0 35.875" stroke="#1F2329" stroke-width="5.6000000000000005" stroke-linecap="round" stroke-linejoin="round"></path><path d="M9.625 17.5 L14.4375 35.875" stroke="#1F2329" stroke-width="5.6000000000000005" stroke-linecap="round" stroke-linejoin="round"></path><path d="M13.125 8.75 L27.125 15.75" stroke="#1F2329" stroke-width="5.6000000000000005" stroke-linecap="round" stroke-linejoin="round"></path><ellipse cx="0" cy="13.125" rx="15.75" ry="13.65" fill="#FFFFFF" stroke="#1F2329" stroke-width="5.6000000000000005" stroke-linecap="round" stroke-linejoin="round"></ellipse></g></g></g><g transform="translate(0 -264.28) rotate(6)"><g><circle cx="-62.99999999999999" cy="-62.41599999999999" r="21.599999999999998" fill="#1F2329"></circle><circle cx="-31.499999999999996" cy="-71.628" r="21.599999999999998" fill="#1F2329"></circle><circle cx="0" cy="-80.84" r="21.599999999999998" fill="#1F2329"></circle><circle cx="31.499999999999996" cy="-71.628" r="21.599999999999998" fill="#1F2329"></circle><circle cx="62.99999999999999" cy="-62.41599999999999" r="21.599999999999998" fill="#1F2329"></circle><path d="M-49.50000000000001 -94 q 10 -14 20 0" fill="none" stroke="#FFFFFF" stroke-width="4.2" stroke-linecap="round" stroke-linejoin="round" opacity="0.5"></path><path d="M-13.5 -94 q 10 -14 20 0" fill="none" stroke="#FFFFFF" stroke-width="4.2" stroke-linecap="round" stroke-linejoin="round" opacity="0.5"></path><path d="M22.5 -94 q 10 -14 20 0" fill="none" stroke="#FFFFFF" stroke-width="4.2" stroke-linecap="round" stroke-linejoin="round" opacity="0.5"></path><path d="M54 -94 q 10 -14 20 0" fill="none" stroke="#FFFFFF" stroke-width="4.2" stroke-linecap="round" stroke-linejoin="round" opacity="0.5"></path></g><path d="M90.5 15.5 C87.8 31.0 78.7 46.7 68.9 59.0 C59.2 71.3 46.1 83.4 32.2 89.0 C18.2 94.7 0.4 95.2 -14.6 92.6 C-29.5 90.0 -46.1 83.4 -57.6 73.4 C-69.2 63.5 -78.8 47.8 -83.8 33.0 C-88.8 18.3 -90.0 0.5 -87.7 -15.1 C-85.5 -30.6 -79.8 -48.3 -70.5 -60.3 C-61.1 -72.3 -45.6 -81.5 -31.4 -87.0 C-17.2 -92.6 -0.1 -95.8 14.7 -93.4 C29.5 -91.1 45.5 -82.9 57.2 -73.0 C69.0 -63.0 79.8 -48.4 85.3 -33.6 C90.9 -18.9 93.3 0.1 90.5 15.5Z" fill="#FFFFFF" stroke="#1F2329" stroke-width="7" stroke-linecap="round" stroke-linejoin="round"></path><g transform="translate(0 0)"><g transform="translate(-32.4 -3.7600000000000002) scale(1)"><g transform="scale(1 1)"><ellipse cx="0" cy="0" rx="15.1875" ry="17.009999999999998" fill="#FFFFFF" stroke="#1F2329" stroke-width="3.5720999999999994" stroke-linecap="round" stroke-linejoin="round"></ellipse><circle cx="0" cy="0" r="5.832" fill="#1F2329"></circle></g></g><g transform="translate(32.4 -3.7600000000000002) scale(1)"><g transform="scale(1 1)"><ellipse cx="0" cy="0" rx="15.1875" ry="17.009999999999998" fill="#FFFFFF" stroke="#1F2329" stroke-width="3.5720999999999994" stroke-linecap="round" stroke-linejoin="round"></ellipse><circle cx="0" cy="0" r="5.832" fill="#1F2329"></circle></g></g><path d="M-14.58 0 L14.58 0" transform="translate(-32.4 -50.49000000000001) rotate(-10)" stroke="#1F2329" stroke-width="6.075" stroke-linecap="round" stroke-linejoin="round"></path><path d="M-14.58 0 L14.58 0" transform="translate(32.4 -50.49000000000001) rotate(10)" stroke="#1F2329" stroke-width="6.075" stroke-linecap="round" stroke-linejoin="round"></path><g transform="translate(0 39.48)"><path d="M-6.048 0 A6.048 7.56 0 1 0 6.048 0 A6.048 7.56 0 1 0 -6.048 0Z" fill="#1F2329" stroke="#1F2329" stroke-width="5.103" stroke-linecap="round" stroke-linejoin="round"></path></g></g></g></g></g></g></svg>
