<svg xmlns="http://www.w3.org/2000/svg" width="200" height="160" viewBox="-100 -80 200 160"><g transform="translate(0 0) rotate(0) scale(1)" opacity="1"><g transform="rotate(-115)"><path d="M-14 0 C -26 24.5 -18 56 0 70 C 18 56 26 24.5 14 0 Z" fill="#F1CF62" stroke="#1F2329" stroke-width="5.25" stroke-linecap="round" stroke-linejoin="round"></path><path d="M0 14 L0 52.5" stroke="#D9A93A" stroke-width="3.15" stroke-linecap="round" stroke-linejoin="round"></path><path d="M-4 64.4 q 4 6 8 0" fill="none" stroke="#7E6047" stroke-width="4.2" stroke-linecap="round" stroke-linejoin="round"></path></g><g transform="rotate(115)"><path d="M-14 0 C -26 24.5 -18 56 0 70 C 18 56 26 24.5 14 0 Z" fill="#F1CF62" stroke="#1F2329" stroke-width="5.25" stroke-linecap="round" stroke-linejoin="round"></path><path d="M0 14 L0 52.5" stroke="#D9A93A" stroke-width="3.15" stroke-linecap="round" stroke-linejoin="round"></path><path d="M-4 64.4 q 4 6 8 0" fill="none" stroke="#7E6047" stroke-width="4.2" stroke-linecap="round" stroke-linejoin="round"></path></g><g transform="rotate(180)"><path d="M-14 0 C -26 21 -18 48 0 60 C 18 48 26 21 14 0 Z" fill="#F1CF62" stroke="#1F2329" stroke-width="5.25" stroke-linecap="round" stroke-linejoin="round"></path><path d="M0 12 L0 45" stroke="#D9A93A" stroke-width="3.15" stroke-linecap="round" stroke-linejoin="round"></path><path d="M-4 55.2 q 4 6 8 0" fill="none" stroke="#7E6047" stroke-width="4.2" stroke-linecap="round" stroke-linejoin="round"></path></g><path d="M16.7 0.2 C15.7 5.8 12.1 13.0 8.1 15.4 C4.2 17.9 -2.6 17.1 -7.0 14.8 C-11.4 12.5 -17.2 7.1 -18.5 1.7 C-19.7 -3.7 -17.5 -12.8 -14.5 -17.5 C-11.5 -22.1 -5.2 -26.3 -0.4 -26.5 C4.3 -26.6 11.2 -22.8 14.0 -18.3 C16.9 -13.9 17.7 -5.5 16.7 0.2Z" fill="#F1CF62" stroke="#1F2329" stroke-width="5.25" stroke-linecap="round" stroke-linejoin="round"></path><path d="M0 -22 l 2 -16" stroke="#7E6047" stroke-width="8.4" stroke-linecap="round" stroke-linejoin="round"></path></g></svg>
