<svg xmlns="http://www.w3.org/2000/svg" width="220" height="220" viewBox="-110 -120 220 220"><g transform="translate(0 0) rotate(0) scale(1)" opacity="1"><circle cx="0" cy="-10" r="70" fill="#FFF6D8" opacity="0.8"></circle><path d="M62 -10 L86 -10" stroke="#1F2329" stroke-width="5.6000000000000005" stroke-linecap="round" stroke-linejoin="round" opacity="1"></path><path d="M43.84062043356595 33.840620433565945 L60.81118318204309 50.81118318204308" stroke="#1F2329" stroke-width="5.6000000000000005" stroke-linecap="round" stroke-linejoin="round" opacity="1"></path><path d="M3.796405077356795e-15 52 L5.2659812363336185e-15 76" stroke="#1F2329" stroke-width="5.6000000000000005" stroke-linecap="round" stroke-linejoin="round" opacity="1"></path><path d="M-43.840620433565945 33.84062043356595 L-60.81118318204308 50.81118318204309" stroke="#1F2329" stroke-width="5.6000000000000005" stroke-linecap="round" stroke-linejoin="round" opacity="1"></path><path d="M-62 -9.999999999999993 L-86 -9.99999999999999" stroke="#1F2329" stroke-width="5.6000000000000005" stroke-linecap="round" stroke-linejoin="round" opacity="1"></path><path d="M-43.84062043356596 -53.840620433565945 L-60.8111831820431 -70.81118318204308" stroke="#1F2329" stroke-width="5.6000000000000005" stroke-linecap="round" stroke-linejoin="round" opacity="1"></path><path d="M-1.1389215232070385e-14 -72 L-1.5797943709000856e-14 -96" stroke="#1F2329" stroke-width="5.6000000000000005" stroke-linecap="round" stroke-linejoin="round" opacity="1"></path><path d="M43.84062043356594 -53.84062043356596 L60.811183182043074 -70.8111831820431" stroke="#1F2329" stroke-width="5.6000000000000005" stroke-linecap="round" stroke-linejoin="round" opacity="1"></path><path d="M36.8 -9.4 C35.3 -1.4 30.6 7.2 25.1 12.8 C19.7 18.4 11.5 23.3 4.0 24.3 C-3.4 25.4 -13.0 23.4 -19.4 19.2 C-25.9 15.0 -31.5 6.7 -34.6 -1.0 C-37.6 -8.6 -39.4 -18.9 -37.8 -26.9 C-36.3 -34.9 -30.9 -43.5 -25.3 -49.1 C-19.7 -54.6 -11.4 -59.6 -4.0 -60.4 C3.3 -61.1 12.3 -57.9 18.6 -53.6 C24.9 -49.4 30.9 -42.1 33.9 -34.7 C36.9 -27.3 38.3 -17.3 36.8 -9.4Z" fill="#FFFFFF" stroke="#1F2329" stroke-width="7" stroke-linecap="round" stroke-linejoin="round"></path><path d="M-16 22 L16 22 L14 44 L-14 44Z" fill="#C8C3B8" stroke="#1F2329" stroke-width="5.6000000000000005" stroke-linecap="round" stroke-linejoin="round"></path><path d="M-12 -18 q 6 -16 12 0 q 6 16 12 0" fill="none" stroke="#E63946" stroke-width="4.2" stroke-linecap="round" stroke-linejoin="round"></path></g></svg>
