<svg xmlns="http://www.w3.org/2000/svg" width="160" height="200" viewBox="-80 -100 160 200"><g transform="translate(0 0) rotate(0) scale(1)" opacity="1"><g transform="skewX(0)"><path d="M-32.0 -60.3 C-24.1 -62.7 -10.7 -62.3 0.0 -62.9 C10.7 -63.5 24.1 -66.4 32.0 -63.9 C39.9 -61.4 45.1 -58.6 47.6 -48.0 C50.1 -37.4 46.9 -16.0 46.8 0.0 C46.7 16.0 49.5 37.6 47.1 48.0 C44.6 58.4 39.8 60.4 32.0 62.5 C24.2 64.5 10.7 60.8 0.0 60.4 C-10.7 60.1 -24.1 62.3 -32.0 60.2 C-39.9 58.2 -45.4 58.0 -47.6 48.0 C-49.8 38.0 -45.4 16.0 -45.4 0.0 C-45.4 -16.0 -49.8 -38.0 -47.6 -48.0 C-45.4 -58.0 -39.9 -57.8 -32.0 -60.3Z" fill="#E63946" stroke="#1F2329" stroke-width="7" stroke-linecap="round" stroke-linejoin="round"></path><path d="M-33.1 6.2 C-29.4 2.7 -18.1 -15.5 -11.0 -14.9 C-4.0 -14.3 1.8 9.5 9.2 9.9 C16.6 10.3 29.1 -8.7 33.1 -12.4" fill="none" stroke="#FFFFFF" stroke-width="7.700000000000001" stroke-linecap="round" stroke-linejoin="round"></path><path d="M-46 -52 L-32.85714285714286 -59 L-19.714285714285715 -52 L-6.5714285714285765 -59 L6.571428571428569 -52 L19.714285714285722 -59 L32.85714285714285 -52 L46 -59" fill="none" stroke="#1F2329" stroke-width="3.8500000000000005" stroke-linecap="round" stroke-linejoin="round"></path><path d="M-46 59 L-32.85714285714286 52 L-19.714285714285715 59 L-6.5714285714285765 52 L6.571428571428569 59 L19.714285714285722 52 L32.85714285714285 59 L46 52" fill="none" stroke="#1F2329" stroke-width="3.8500000000000005" stroke-linecap="round" stroke-linejoin="round"></path><circle cx="-18.400000000000002" cy="-68" r="7" fill="#F1CF62" stroke="#1F2329" stroke-width="3.15" stroke-linecap="round" stroke-linejoin="round"></circle><circle cx="0" cy="-74" r="7" fill="#F1CF62" stroke="#1F2329" stroke-width="3.15" stroke-linecap="round" stroke-linejoin="round"></circle><circle cx="18.400000000000002" cy="-68" r="7" fill="#F1CF62" stroke="#1F2329" stroke-width="3.15" stroke-linecap="round" stroke-linejoin="round"></circle></g></g></svg>
